<?xml version="1.0" encoding="utf-8"?>
<!-- Generator: Adobe Illustrator 23.0.1, SVG Export Plug-In . SVG Version: 6.00 Build 0)  -->
<svg version="1.1" id="Logo_green_copy" xmlns="http://www.w3.org/2000/svg" xmlns:xlink="http://www.w3.org/1999/xlink" x="0px"
	 y="0px" viewBox="0 0 360 160" style="enable-background:new 0 0 360 160;" xml:space="preserve">
<style type="text/css">
	.st0{fill:#FFFFFF;}
</style>
<g>
	<g>
		<path class="st0" d="M15.89,13.68h7.08v27.85h36.18V13.68h7.08v62.7h-7.08V48.17H22.97v28.21h-7.08V13.68z"/>
		<path class="st0" d="M86.36,13.68h45.32v6.45H93.45v21.41h27.01v6.45H93.45v21.94h38.69v6.45H86.37L86.36,13.68L86.36,13.68z"/>
		<path class="st0" d="M208.24,13.68h7.08v56.16h29.29v6.54h-36.36v-62.7H208.24z"/>
		<path class="st0" d="M260.36,20.21h-21.05v-6.54h49.26v6.54h-21.05v56.16h-7.17L260.36,20.21L260.36,20.21z"/>
		<path class="st0" d="M294.15,13.68h7.08v27.85h36.18V13.68h7.08v62.7h-7.08V48.17h-36.18v28.21h-7.08V13.68z"/>
		<path class="st0" d="M59.14,119.4V82.84h7.1v36.11c0,13.56,7.19,21.2,19.22,21.2c11.59,0,18.95-7.01,18.95-20.75V82.84h7.1v36.02
			c0,18.32-10.51,27.85-26.23,27.85C69.74,146.71,59.14,137.19,59.14,119.4z"/>
		<path class="st0" d="M143.01,69.29"/>
		<path class="st0" d="M109.46,147.14"/>
		<path class="st0" d="M190.23,57.57"/>
		<path class="st0" d="M223.85,135.42"/>
	</g>
	<path class="st0" d="M22.96,139.09h28.3v6.45H15.88v-62.7h7.08L22.96,139.09z"/>
	<path class="st0" d="M235.64,82.84h45.32v6.45h-38.24v21.41h27.01v6.45h-27.01v21.94h38.69v6.45h-45.77V82.84z"/>
	<path class="st0" d="M301.22,94.12v51.43h-7.08v-62.7h7.08l36.18,50.25V82.85h7.08v50.22v4.36v8.12h-7.08L301.22,94.12z"/>
	<polygon class="st0" points="192.45,76.39 200.11,76.4 173.82,13.67 166.15,13.67 166.15,13.68 139.86,76.4 147.54,76.4 
		169.99,22.82 	"/>
	<polygon class="st0" points="202.8,82.82 195.13,82.82 195.13,82.82 169.99,137.24 144.85,82.82 137.18,82.82 137.18,82.82 
		110.88,145.55 118.55,145.54 141.01,91.97 166.15,145.54 166.15,145.54 166.15,145.55 171.23,145.55 173.82,145.55 173.82,145.54 
		173.82,145.54 198.96,91.97 221.42,145.54 229.1,145.55 	"/>
</g>
<path class="st0" d="M404.95,163.4"/>
<path class="st0" d="M395.86,158.74"/>
</svg>
