<?xml version="1.0" encoding="UTF-8"?>
<svg width="330px" height="134px" viewBox="0 0 330 134" version="1.1" xmlns="http://www.w3.org/2000/svg" xmlns:xlink="http://www.w3.org/1999/xlink">
    <!-- Generator: Sketch 55.1 (78136) - https://sketchapp.com -->
    <title>Logo</title>
    <desc>Created with Sketch.</desc>
    <g id="Logo" stroke="none" stroke-width="1" fill="none" fill-rule="evenodd">
        <g id="Letters" transform="translate(0.880000, 0.670000)" fill="#64645D" fill-rule="nonzero">
            <polygon id="H" points="0.01 0.01 7.09 0.01 7.09 27.86 43.27 27.86 43.27 0.01 50.35 0.01 50.35 62.71 43.27 62.71 43.27 34.5 7.09 34.5 7.09 62.71 0.01 62.71"></polygon>
            <polygon id="E" points="70.48 0.01 115.8 0.01 115.8 6.46 77.57 6.46 77.57 27.87 104.58 27.87 104.58 34.32 77.57 34.32 77.57 56.26 116.26 56.26 116.26 62.71 70.49 62.71"></polygon>
            <polygon id="L" points="192.36 0.01 199.44 0.01 199.44 56.17 228.73 56.17 228.73 62.71 192.37 62.71 192.37 0.01"></polygon>
            <polygon id="T" points="244.48 6.54 223.43 6.54 223.43 -3.55271368e-15 272.69 -3.55271368e-15 272.69 6.54 251.64 6.54 251.64 62.7 244.47 62.7"></polygon>
            <polygon id="H" points="278.27 0.01 285.35 0.01 285.35 27.86 321.53 27.86 321.53 0.01 328.61 0.01 328.61 62.71 321.53 62.71 321.53 34.5 285.35 34.5 285.35 62.71 278.27 62.71"></polygon>
            <path d="M43.26,105.73 L43.26,69.17 L50.36,69.17 L50.36,105.28 C50.36,118.84 57.55,126.48 69.58,126.48 C81.17,126.48 88.53,119.47 88.53,105.73 L88.53,69.17 L95.63,69.17 L95.63,105.19 C95.63,123.51 85.12,133.04 69.4,133.04 C53.86,133.04 43.26,123.52 43.26,105.73 Z" id="U"></path>
            <polygon id="L" points="7.08 125.42 35.38 125.42 35.38 131.87 0 131.87 0 69.17 7.08 69.17"></polygon>
            <polygon id="E" points="219.76 69.17 265.08 69.17 265.08 75.62 226.84 75.62 226.84 97.03 253.85 97.03 253.85 103.48 226.84 103.48 226.84 125.42 265.53 125.42 265.53 131.87 219.76 131.87"></polygon>
            <polygon id="N" points="285.34 80.45 285.34 131.88 278.26 131.88 278.26 69.18 285.34 69.18 321.52 119.43 321.52 69.18 328.6 69.18 328.6 119.4 328.6 123.76 328.6 131.88 321.52 131.88"></polygon>
        </g>
        <polygon id="A" fill="#00AFAA" fill-rule="nonzero" points="177.45 63.39 185.11 63.4 158.82 0.67 151.15 0.67 151.15 0.68 124.86 63.4 132.54 63.4 154.99 9.82"></polygon>
        <polygon id="M" fill="#00AFAA" fill-rule="nonzero" points="187.8 69.82 180.13 69.82 180.13 69.82 154.99 124.24 129.85 69.82 122.18 69.82 122.18 69.82 95.88 132.55 103.55 132.54 126.01 78.97 151.15 132.54 151.15 132.54 151.15 132.55 156.23 132.55 158.82 132.55 158.82 132.54 158.82 132.54 183.96 78.97 206.42 132.54 214.1 132.55"></polygon>
    </g>
</svg>