<?xml version="1.0" encoding="UTF-8"?>
<svg width="330px" height="134px" viewBox="0 0 330 134" version="1.1" xmlns="http://www.w3.org/2000/svg" xmlns:xlink="http://www.w3.org/1999/xlink">
    <!-- Generator: Sketch 55.1 (78136) - https://sketchapp.com -->
    <title>Artboard</title>
    <desc>Created with Sketch.</desc>
    <g id="Artboard" stroke="none" stroke-width="1" fill="none" fill-rule="evenodd">
        <g id="logo-white" fill-rule="nonzero">
            <g id="Group" fill="#FFFFFF">
                <polygon id="Path" points="0.89 0.68 7.97 0.68 7.97 28.53 44.15 28.53 44.15 0.68 51.23 0.68 51.23 63.38 44.15 63.38 44.15 35.17 7.97 35.17 7.97 63.38 0.89 63.38"></polygon>
                <polygon id="Path" points="71.36 0.68 116.68 0.68 116.68 7.13 78.45 7.13 78.45 28.54 105.46 28.54 105.46 34.99 78.45 34.99 78.45 56.93 117.14 56.93 117.14 63.38 71.37 63.38"></polygon>
                <polygon id="Path" points="193.24 0.68 200.32 0.68 200.32 56.84 229.61 56.84 229.61 63.38 193.25 63.38 193.25 0.68"></polygon>
                <polygon id="Path" points="245.36 7.21 224.31 7.21 224.31 0.67 273.57 0.67 273.57 7.21 252.52 7.21 252.52 63.37 245.35 63.37"></polygon>
                <polygon id="Path" points="279.15 0.68 286.23 0.68 286.23 28.53 322.41 28.53 322.41 0.68 329.49 0.68 329.49 63.38 322.41 63.38 322.41 35.17 286.23 35.17 286.23 63.38 279.15 63.38"></polygon>
                <path d="M44.14,106.4 L44.14,69.84 L51.24,69.84 L51.24,105.95 C51.24,119.51 58.43,127.15 70.46,127.15 C82.05,127.15 89.41,120.14 89.41,106.4 L89.41,69.84 L96.51,69.84 L96.51,105.86 C96.51,124.18 86,133.71 70.28,133.71 C54.74,133.71 44.14,124.19 44.14,106.4 Z" id="Path"></path>
            </g>
            <polygon id="Path" fill="#FFFFFF" points="7.96 126.09 36.26 126.09 36.26 132.54 0.88 132.54 0.88 69.84 7.96 69.84"></polygon>
            <polygon id="Path" fill="#FFFFFF" points="220.64 69.84 265.96 69.84 265.96 76.29 227.72 76.29 227.72 97.7 254.73 97.7 254.73 104.15 227.72 104.15 227.72 126.09 266.41 126.09 266.41 132.54 220.64 132.54 220.64 69.84"></polygon>
            <polygon id="Path" fill="#FFFFFF" points="286.22 81.12 286.22 132.55 279.14 132.55 279.14 69.85 286.22 69.85 322.4 120.1 322.4 69.85 329.48 69.85 329.48 120.07 329.48 124.43 329.48 132.55 322.4 132.55"></polygon>
            <polygon id="Path" fill="#00AEAA" points="177.45 63.39 185.11 63.4 158.82 0.67 151.15 0.67 151.15 0.68 124.86 63.4 132.54 63.4 154.99 9.82"></polygon>
            <polygon id="Path" fill="#00AEAA" points="187.8 69.82 180.13 69.82 180.13 69.82 154.99 124.24 129.85 69.82 122.18 69.82 122.18 69.82 95.88 132.55 103.55 132.54 126.01 78.97 151.15 132.54 151.15 132.54 151.15 132.55 156.23 132.55 158.82 132.55 158.82 132.54 158.82 132.54 183.96 78.97 206.42 132.54 214.1 132.55"></polygon>
        </g>
    </g>
</svg>