<?xml version="1.0" encoding="UTF-8"?>
<svg width="463px" height="596px" preserveAspectRatio="none" version="1.1" xmlns="http://www.w3.org/2000/svg" xmlns:xlink="http://www.w3.org/1999/xlink">
    <!-- Generator: Sketch 55.1 (78136) - https://sketchapp.com -->
    <title>Artboard</title>
    <desc>Created with Sketch.</desc>
    <g id="Artboard" stroke="none" stroke-width="1" fill="none" fill-rule="evenodd">
        <g id="pattern_normal_01" transform="translate(-86.000000, 0.000000)" fill-rule="nonzero">
            <rect id="Rectangle" fill="#82D4CF" x="80.22" y="0" width="595.64" height="595.64"></rect>
            <polygon id="Path" fill="#74D0CB" points="447.48 595.63 78.75 595.63 328.4 0 697.13 0"></polygon>
            <polygon id="Path" fill="#66CBC7" points="372.48 595.63 741.21 595.63 491.56 0 122.83 0"></polygon>
            <polygon id="Path" fill="#00B7B2" points="249.65 595.63 377.29 595.63 127.64 0 0 0"></polygon>
            <polygon id="Path" fill="#57C8C3" points="79 595.63 8.09 595.63 257.77 0 328.68 0"></polygon>
            <polygon id="Path" fill="#2DBFBA" points="275 595.63 161.55 595.63 411.2 0 524.65 0"></polygon>
            <polygon id="Path" fill="#2DBFBA" points="510.74 595.63 340.56 595.63 590.21 0 760.39 0"></polygon>
            <polygon id="Path" fill="#00B7B2" points="611.83 595.63 739.46 595.63 489.81 0 362.18 0"></polygon>
        </g>
    </g>
</svg>